<svg xmlns="http://www.w3.org/2000/svg" version="1.1" xmlnsXlink="http://www.w3.org/1999/xlink" xmlnsSvgjs="http://svgjs.dev/svgjs" width="1000" height="151" viewBox="0 0 1000 151"><g transform="matrix(1,0,0,1,-0.6060605887040538,0.5936978836663087)"><svg viewBox="0 0 396 60" data-background-color="#fcfbfb" preserveAspectRatio="xMidYMid meet" height="151" width="1000" xmlns="http://www.w3.org/2000/svg" xmlnsXlink="http://www.w3.org/1999/xlink"><g id="tight-bounds" transform="matrix(1,0,0,1,0.2400000068732311,-0.23590644384091775)"><svg viewBox="0 0 395.52 60.47181115293686" height="60.47181115293686" width="395.52"><g><svg viewBox="0 0 487.9562060432413 74.60455992807049" height="60.47181115293686" width="395.52"><g transform="matrix(1,0,0,1,0,10.310760453155908)"><svg viewBox="0 0 395.52 53.98303902175867" height="53.98303902175867" width="395.52"><g><svg viewBox="0 0 395.52 53.98303902175867" height="53.98303902175867" width="395.52"><g><svg viewBox="0 0 395.52 53.98303902175867" height="53.98303902175867" width="395.52"><g transform="matrix(1,0,0,1,0,0)"><svg width="395.52" viewBox="0.550000011920929 -29.600000381469727 278.02001953125 37.95000076293945" height="53.98303902175867" data-palette-color="#7196b0"><path d="M34.85 1.25L34.85 1.25Q33.3 1.25 32.6-0.13 31.9-1.5 31.9-3.63 31.9-5.75 32.8-9.45L32.8-9.45Q31.05-9.6 26.85-10.15L26.85-10.15Q19.9-1.55 15.3 1.8L15.3 1.8Q11.35 4.75 7.1 4.75L7.1 4.75Q4.4 4.75 2.48 3.4 0.55 2.05 0.55-0.6L0.55-0.6Q0.55-1.1 0.8-1.53 1.05-1.95 1.3-1.75 1.55-1.55 1.55-0.6L1.55-0.6Q1.55 1.1 2.88 1.95 4.2 2.8 6.1 2.8L6.1 2.8Q10.2 2.8 14.18 0.13 18.15-2.55 25-10.35L25-10.35Q17.65-11.25 15.3-11.25L15.3-11.25Q8.95-11.25 7.45-7.1L7.45-7.1Q7.25-6.55 7.25-6.08 7.25-5.6 7.45-5.23 7.65-4.85 7.53-4.63 7.4-4.4 7.1-4.42 6.8-4.45 6.6-4.75L6.6-4.75Q6.05-5.7 6.05-6.6L6.05-6.6Q6.05-9.7 7.18-11.18 8.3-12.65 9.8-13.05L9.8-13.05Q11.6-13.55 14-13.55 16.4-13.55 26.1-11.65L26.1-11.65Q28.8-14.75 34.3-21.63 39.8-28.5 39.8-28.6L39.8-28.6 39.85-28.6Q39.9-28.65 40.1-28.75L40.1-28.75Q41.3-29.45 42.7-29.45L42.7-29.45Q43.2-29.45 43.2-28.95L43.2-28.95Q43.2-28.9 43.15-28.83 43.1-28.75 43.05-28.63 43-28.5 42.95-28.4L42.95-28.4Q38.15-20.45 35.5-10.5L35.5-10.5 35.35-10.15 36.6-10.1Q37-10.05 38.02-10.05 39.05-10.05 40.2-10.53 41.35-11 41.68-11.55 42-12.1 42.25-11.8 42.5-11.5 42.3-11.15L42.3-11.15Q41.75-10.15 40.35-9.7L40.35-9.7Q39.15-9.2 37.98-9.2 36.8-9.2 36.45-9.2L36.45-9.2 35.1-9.25Q34.15-4.9 34.15-2.33 34.15 0.25 35.55 0.25L35.55 0.25Q36.9 0.25 39.75-1.9 42.6-4.05 45.1-7.45L45.1-7.45Q45.25-7.65 45.5-7.55 45.75-7.45 45.75-7.3 45.75-7.15 45.68-6.93 45.6-6.7 44.9-5.8L44.9-5.8Q42.8-3 39.75-0.5L39.75-0.5Q37.55 1.25 34.85 1.25ZM37.6-23.9L37.6-23.9Q37.65-24 37.73-24.18 37.8-24.35 37.85-24.45L37.85-24.45Q31.6-15.9 27.8-11.25L27.8-11.25 33.05-10.4Q34.45-15.85 37.6-23.9ZM58.45-13.5L58.45-13.5Q59.35-13.5 60.6-12.58 61.85-11.65 62-10.75L62-10.75Q62.05-10.4 62.05-10.1L62.05-10.1Q62.05-7.85 59.85-5.28 57.65-2.7 54.9-0.9L54.9-0.9Q50.65 2 46.45 2L46.45 2Q44.75 2 43.75 1.55L43.75 1.55Q42.95 1.15 45.75 1.15L45.75 1.15Q48.8 1.15 53.65-2.45L53.65-2.45Q58.35-5.75 59.35-10.35L59.35-10.35Q59.5-11.05 59.32-11.78 59.15-12.5 58.45-12.5L58.45-12.5Q56.2-12.5 52.55-9.35L52.55-9.35Q51-8.05 49.37-5.85 47.75-3.65 47.75-2.25L47.75-2.25Q47.75-2.05 47.82-1.83 47.9-1.6 47.65-1.1L47.65-1.1Q47 0.2 45.8-1.25L45.8-1.25Q45.5-2 45.5-2.8L45.5-2.8Q45.5-5.1 46.2-7.65L46.2-7.65Q46-7.45 45.32-6.43 44.65-5.4 43.75-4.4L43.75-4.4Q43.3-3.9 43.05-4.4L43.05-4.4Q43-4.5 43-4.67 43-4.85 43.2-5.1L43.2-5.1Q47.1-9.95 47.75-11.4L47.75-11.4Q48.65-13.9 50.5-17.93 52.35-21.95 53.9-24.35L53.9-24.35Q57.1-29.4 60.5-29.4L60.5-29.4Q61.1-29.4 61.75-29.25L61.75-29.25 62.75-28.9Q64.2-28.05 64.2-26.73 64.2-25.4 63.4-23.85L63.4-23.85Q62.1-21.2 57.8-17.18 53.5-13.15 49.45-10.35L49.45-10.35Q48.45-8.55 47.9-5.65L47.9-5.65Q49.75-8.4 52.72-10.95 55.7-13.5 58.45-13.5ZM56.85-18L56.85-18Q62.8-24 62.8-26.9L62.8-26.9Q62.8-28.1 61.9-28.1L61.9-28.1Q61.2-28.1 60-27.2L60-27.2Q54.85-23.25 50-12.35L50-12.35Q53.4-14.6 56.85-18ZM81.1-29.25L81.1-29.25Q82-29.6 82.65-29.6L82.65-29.6Q84.85-29.6 85.55-28.4L85.55-28.4Q85.95-27.8 85.95-27.35L85.95-27.35Q85.95-23.95 80.25-18.8L80.25-18.8Q75.2-14.35 70.95-11.15L70.95-11.15Q69.55-8 68.05-3.4L68.05-3.4Q69.85-5.6 72.6-8.5L72.6-8.5Q78.15-14.25 80.35-14.25L80.35-14.25Q81.45-14.25 81.5-13.15L81.5-13.15Q81.6-12 81.02-10.95 80.45-9.9 79.95-9L79.95-9Q77.6-5.1 77.6-2.05L77.6-2.05Q77.6-1.05 78-0.6L78-0.6Q78.7 0.2 80-0.5 81.3-1.2 83.62-3.3 85.95-5.4 87.4-7.4L87.4-7.4Q87.65-7.65 87.87-7.53 88.1-7.4 88.1-7.28 88.1-7.15 88-7L88-7Q87.25-5.65 85.3-3.58 83.35-1.5 82.15-0.6L82.15-0.6Q79.85 1.15 77.75 1.15L77.75 1.15Q75.85 1.15 75.2-0.75L75.2-0.75Q75.05-1.2 75.05-1.83 75.05-2.45 75.15-3.15L75.15-3.15Q75.4-5.25 77.8-9.7L77.8-9.7Q78.3-10.6 78.3-10.98 78.3-11.35 77.9-11.35L77.9-11.35Q77.1-11.35 74.8-9.35L74.8-9.35Q73.25-7.9 70.22-3.88 67.2 0.15 66.8 0.4L66.8 0.4Q65 1.3 64.57 1.3 64.15 1.3 64.1 1.18 64.05 1.05 64.15 0.85 64.25 0.65 64.95-1.35L64.95-1.35Q67.3-8 68.15-10.15L68.15-10.15Q66.5-8.05 64.05-5.4L64.05-5.4Q63.65-5 63.65-5.58 63.65-6.15 64.1-6.75 64.55-7.35 65.97-9.08 67.4-10.8 68-11.65L68-11.65Q67.55-11.9 67.52-12.35 67.5-12.8 67.82-12.98 68.15-13.15 68.9-12.85L68.9-12.85Q69.4-13.55 69.8-14.4L69.8-14.4Q75.75-27.2 81.1-29.25ZM83.9-25.5L83.9-25.5Q84.55-26.7 84.55-27.53 84.55-28.35 83.82-28.35 83.1-28.35 81.9-27.45L81.9-27.45Q76.4-23.25 71.95-13.4L71.95-13.4Q75.2-15.5 78.75-19 82.3-22.5 83.9-25.5ZM91.54-13.85L91.54-13.85Q92.79-13.85 93.04-13.05L93.04-13.05Q93.14-12.6 92.92-12.18 92.69-11.75 92.59-11.5 92.49-11.25 92.44-11.1L92.44-11.1Q92.19-10.6 91.94-10.15L91.94-10.15Q89.09-4.45 88.94-2.9L88.94-2.9Q88.89-2.45 88.89-1.75 88.89-1.05 89.29-0.6L89.29-0.6Q89.99 0.2 91.29-0.5 92.59-1.2 94.92-3.3 97.24-5.4 98.69-7.4L98.69-7.4Q98.89-7.65 99.14-7.53 99.39-7.4 99.39-7.28 99.39-7.15 99.29-7L99.29-7Q98.54-5.65 96.59-3.55L96.59-3.55Q93.39-0.1 91.24 0.7L91.24 0.7Q89.99 1.15 89.14 1.15L89.14 1.15Q87.14 1.15 86.49-0.75L86.49-0.75Q86.39-1.1 86.39-1.6L86.39-1.6Q86.39-3.35 87.99-6.9L87.99-6.9Q87.74-6.35 86.04-4.4L86.04-4.4Q85.59-3.9 85.34-4.4L85.34-4.4Q85.29-4.5 85.29-4.67 85.29-4.85 85.49-5.1L85.49-5.1Q87.94-8.15 89.34-10.25L89.34-10.25Q89.24-10.5 89.44-10.9L89.44-10.9Q90.44-13.7 91.19-13.85L91.19-13.85Q91.34-13.85 91.54-13.85ZM95.49-20.5L95.49-20.5 95.09-18.9Q95.09-18.45 94.44-17.45 93.79-16.45 93.44-16.45L93.44-16.45Q91.29-16.45 91.29-17.5L91.29-17.5Q91.29-17.7 93.44-19.35L93.44-19.35 94.29-20Q95.09-20.7 95.29-20.7 95.49-20.7 95.49-20.5ZM98.54 0.5L98.54 0.5Q97.89 1.25 98.27 1.7 98.64 2.15 99.12 2.15 99.59 2.15 100.09 2L100.09 2Q102.24 1.35 104.27-0.58 106.29-2.5 106.29-4.5L106.29-4.5Q106.29-5.6 103.84-6.9L103.84-6.9Q102.69-7.5 102.54-7.6L102.54-7.6Q101.19-8.5 100.84-9.4L100.84-9.4Q100.14-8.2 98.59-5.95L98.59-5.95Q98.24-5.55 97.94-5.78 97.64-6 97.89-6.4L97.89-6.4Q99.94-9.2 100.59-11.1L100.59-11.1Q100.94-13.85 104.59-16.05 108.24-18.25 111.24-18.25L111.24-18.25Q113.14-18.25 113.92-17.57 114.69-16.9 114.69-16.25 114.69-15.6 114.32-14.75 113.94-13.9 112.79-13.15L112.79-13.15Q112.49-12.95 112.29-13.25L112.29-13.25Q112.19-13.55 112.72-14.08 113.24-14.6 113.39-15.5 113.54-16.4 112.59-16.6L112.59-16.6Q112.44-16.6 112.29-16.6L112.29-16.6Q110.34-16.6 107.42-15.15 104.49-13.7 102.84-11.4L102.84-11.4Q102.19-10.55 102.19-9.68 102.19-8.8 103.39-8.1L103.39-8.1Q103.89-7.8 105.09-7.15 106.29-6.5 106.79-6.2 107.29-5.9 107.99-5.25 108.69-4.6 108.74-4.05L108.74-4.05Q108.99-2.55 107.34-0.75L107.34-0.75Q104.99 1.85 100.34 2.9L100.34 2.9Q99.29 3.15 98.22 3.15 97.14 3.15 96.74 2.35L96.74 2.35Q96.59 2.15 96.59 1.73 96.59 1.3 97.39 0.35L97.39 0.35Q98.14-0.4 99.79-1.1L99.79-1.1Q99.94-1.15 100.04-1.05 100.14-0.95 100.09-0.8 100.04-0.65 99.57-0.45 99.09-0.25 98.54 0.5ZM129.99-29.25L129.99-29.25Q130.89-29.6 131.54-29.6L131.54-29.6Q133.74-29.6 134.44-28.4L134.44-28.4Q134.84-27.8 134.84-27.35L134.84-27.35Q134.84-23.95 129.14-18.8L129.14-18.8Q124.09-14.35 119.84-11.15L119.84-11.15Q118.44-8 116.94-3.4L116.94-3.4Q118.74-5.6 121.49-8.5L121.49-8.5Q127.04-14.25 129.24-14.25L129.24-14.25Q130.34-14.25 130.39-13.15L130.39-13.15Q130.49-12 129.91-10.95 129.34-9.9 128.84-9L128.84-9Q126.49-5.1 126.49-2.05L126.49-2.05Q126.49-1.05 126.89-0.6L126.89-0.6Q127.59 0.2 128.89-0.5 130.19-1.2 132.51-3.3 134.84-5.4 136.29-7.4L136.29-7.4Q136.54-7.65 136.76-7.53 136.99-7.4 136.99-7.28 136.99-7.15 136.89-7L136.89-7Q136.14-5.65 134.19-3.58 132.24-1.5 131.04-0.6L131.04-0.6Q128.74 1.15 126.64 1.15L126.64 1.15Q124.74 1.15 124.09-0.75L124.09-0.75Q123.94-1.2 123.94-1.83 123.94-2.45 124.04-3.15L124.04-3.15Q124.29-5.25 126.69-9.7L126.69-9.7Q127.19-10.6 127.19-10.98 127.19-11.35 126.79-11.35L126.79-11.35Q125.99-11.35 123.69-9.35L123.69-9.35Q122.14-7.9 119.11-3.88 116.09 0.15 115.69 0.4L115.69 0.4Q113.89 1.3 113.46 1.3 113.04 1.3 112.99 1.18 112.94 1.05 113.04 0.85 113.14 0.65 113.84-1.35L113.84-1.35Q116.19-8 117.04-10.15L117.04-10.15Q115.39-8.05 112.94-5.4L112.94-5.4Q112.54-5 112.54-5.58 112.54-6.15 112.99-6.75 113.44-7.35 114.86-9.08 116.29-10.8 116.89-11.65L116.89-11.65Q116.44-11.9 116.41-12.35 116.39-12.8 116.71-12.98 117.04-13.15 117.79-12.85L117.79-12.85Q118.29-13.55 118.69-14.4L118.69-14.4Q124.64-27.2 129.99-29.25ZM132.79-25.5L132.79-25.5Q133.44-26.7 133.44-27.53 133.44-28.35 132.71-28.35 131.99-28.35 130.79-27.45L130.79-27.45Q125.29-23.25 120.84-13.4L120.84-13.4Q124.09-15.5 127.64-19 131.19-22.5 132.79-25.5ZM147.19-14.55L147.19-14.55Q149.89-14.55 149.89-11.95L149.89-11.95Q149.89-10.6 149.14-9.75L149.14-9.75Q147.89-7.9 145.09-6.53 142.29-5.15 140.34-5L140.34-5Q139.64-4.95 139.59-5.4L139.59-5.4Q139.54-5.6 139.71-5.65 139.89-5.7 139.99-5.7L139.99-5.7Q141.14-5.8 142.94-6.8L142.94-6.8Q146.29-8.6 147.84-10.5L147.84-10.5Q148.49-11.4 148.49-12.23 148.49-13.05 147.69-13.05L147.69-13.05Q147.04-13.05 145.94-12.5L145.94-12.5Q143.59-11.4 140.99-8.68 138.39-5.95 137.59-3.35L137.59-3.35Q137.34-2.55 137.34-1.78 137.34-1 137.99-0.3 138.64 0.4 139.99 0.4L139.99 0.4Q141.49 0.4 143.44-0.4L143.44-0.4Q149.09-2.7 152.14-7.35L152.14-7.35Q152.44-7.75 152.69-7.5L152.69-7.5Q152.89-7.4 152.89-7.25 152.89-7.1 152.74-6.9L152.74-6.9Q151.24-4.4 148.94-2.45L148.94-2.45Q144.49 1.35 140.29 1.35L140.29 1.35Q136.69 1.35 135.24-0.8L135.24-0.8Q134.69-1.65 134.69-2.85 134.69-4.05 135.34-5.7L135.34-5.7Q136.59-8.55 140.69-11.55 144.79-14.55 147.19-14.55ZM153.88 0.4L153.88 0.4Q152.08 1.3 151.58 1.3 151.08 1.3 151.08 1.15 151.08 1 151.16 0.83 151.23 0.65 151.86-1.05 152.48-2.75 153.43-5.35 154.38-7.95 155.08-9.7L155.08-9.7Q153.93-8.45 152.38-6.25L152.38-6.25Q152.13-5.9 151.71-6.05 151.28-6.2 151.98-7.1L151.98-7.1Q153.63-9.1 156.13-12.85L156.13-12.85Q155.38-13.25 155.38-13.63 155.38-14 155.48-14.2L155.48-14.2Q155.73-14.8 156.38-14.45L156.38-14.45Q156.68-14.35 156.78-14.35L156.78-14.35Q158.98-20.15 162.28-24.7L162.28-24.7Q164.08-27.25 166.03-28.43 167.98-29.6 169.68-29.6L169.68-29.6Q170.88-29.6 171.98-29.03 173.08-28.45 173.08-27.15L173.08-27.15Q173.08-24.65 168.78-19.9L168.78-19.9Q166.48-17.45 163.63-15.4 160.78-13.35 158.58-12.4L158.58-12.4Q156.63-8.1 155.13-3.4L155.13-3.4 158.38-7.65Q158.33-8.1 158.33-8.6L158.33-8.6Q158.33-10.1 158.98-10.45L158.98-10.45Q159.33-10.6 159.43-9.85L159.43-9.85 159.63-9.15Q163.48-13.65 165.18-14.45L165.18-14.45Q165.98-14.85 166.63-14.85 167.28-14.85 167.78-14.5 168.28-14.15 168.28-13.75L168.28-13.75Q168.28-13.05 167.13-12.5L167.13-12.5Q161.63-9.85 159.88-8L159.88-8Q161.08-3.8 162.23-1.4 163.38 1 165.86 4 168.33 7 170.38 7L170.38 7Q172.08 7 171.78 5.5L171.78 5.5Q171.58 4.15 170.96 3.18 170.33 2.2 170.83 2.2L170.83 2.2Q171.28 2.25 171.78 2.65L171.78 2.65Q172.08 3 172.48 3.88 172.88 4.75 172.88 5.35L172.88 5.35Q172.83 6.75 171.53 7.55 170.23 8.35 169.03 8.35L169.03 8.35Q166.68 8.35 164.43 6.03 162.18 3.7 160.68 0.4 159.18-2.9 158.58-6.35L158.58-6.35Q157.68-5.1 156.58-3.35L156.58-3.35Q154.33 0.1 153.88 0.4ZM170.23-24.3Q171.58-26.55 171.58-27.45 171.58-28.35 170.83-28.35 170.08-28.35 168.93-27.45L168.93-27.45Q165.73-25 163.53-21.88 161.33-18.75 159.18-14.1L159.18-14.1Q163.83-16.25 167.63-20.6L167.63-20.6Q168.88-22.05 170.23-24.3ZM209.98-26.4L209.98-26.4Q209.98-25.3 209.08-23.85L209.08-23.85Q208.33-22.5 207.4-22 206.48-21.5 206.48-22.1L206.48-22.1Q206.48-22.15 207.03-22.7L207.03-22.7Q208.68-24.25 208.68-25.25L208.68-25.25Q208.68-27.4 204.43-27.4L204.43-27.4Q202.63-27.4 199.68-26.73 196.73-26.05 193.98-24.55L193.98-24.55Q190.78-22.8 190.78-21.5L190.78-21.5Q190.78-20.45 192.73-19.5L192.73-19.5Q193.78-19 196.9-17.82 200.03-16.65 201.95-15.78 203.88-14.9 205.6-13.3 207.33-11.7 207.33-9.75 207.33-7.8 205.03-5.5L205.03-5.5Q201.53-2.15 195.93 0.08 190.33 2.3 186.33 2.3L186.33 2.3Q178.43 2.3 178.43-2.15 178.43-6.6 183.28-9.7L183.28-9.7Q187.28-12.45 191.68-12.45L191.68-12.45Q192.73-12.45 192.63-12.1L192.63-12.1Q192.53-11.75 191.13-11.73 189.73-11.7 187.53-10.78 185.33-9.85 183.43-8.1L183.43-8.1Q180.93-5.85 180.93-3.6L180.93-3.6Q180.93-2.2 182.28-1.1 183.63 0 187.43 0 191.23 0 194.93-1.2L194.93-1.2Q202.93-3.85 204.93-7L204.93-7Q205.73-8.15 205.73-8.95L205.73-8.95Q205.73-11.25 202.93-12.55L202.93-12.55Q199.68-14.05 193.83-16L193.83-16Q191.58-16.75 190-17.98 188.43-19.2 188.43-20.93 188.43-22.65 190.3-24.33 192.18-26 194.83-27L194.83-27Q200.53-29.15 204.48-29.15L204.48-29.15Q209.98-29.15 209.98-26.4ZM211.82 0.55L211.82 0.55Q211.02 0.55 210.1 0.08 209.17-0.4 208.52-1.28 207.88-2.15 207.88-3.15 207.88-4.15 208.32-5.05L208.32-5.05Q209.32-7.15 211.55-9.13 213.77-11.1 216.17-12.5 218.57-13.9 219.97-14.25 221.38-14.6 222.7-14.6 224.02-14.6 224.97-13.93 225.92-13.25 225.92-12.5L225.92-12.5Q225.92-12.25 225.88-12.2 225.82-12.15 225.63-12.25L225.63-12.25Q225.02-13.2 223.15-13.2 221.27-13.2 218.9-11.98 216.52-10.75 214.42-8.9L214.42-8.9Q212.67-7.25 211.35-5.18 210.02-3.1 210.02-2.15L210.02-2.15Q210.02-0.3 211.07-0.3 212.13-0.3 214.27-2L214.27-2Q217.82-5 219.13-6.4L219.13-6.4Q223.72-11.35 224.07-11.35L224.07-11.35Q224.67-11.35 225.52-11 226.38-10.65 226.07-10.15L226.07-10.15Q223.52-6.55 223.07-2.9L223.07-2.9Q223.02-2.45 223.02-1.75 223.02-1.05 223.42-0.6L223.42-0.6Q224.17 0.2 225.47-0.5 226.77-1.2 229.1-3.3 231.42-5.4 232.82-7.4L232.82-7.4Q233.02-7.65 233.27-7.53 233.52-7.4 233.52-7.3L233.52-7.3Q233.52-6.55 231.15-4.03 228.77-1.5 227.52-0.6L227.52-0.6Q225.17 1.15 223.17 1.15L223.17 1.15Q221.27 1.15 220.63-0.75L220.63-0.75Q220.47-1.35 220.47-2.1L220.47-2.1Q220.47-4.35 221.42-6.85L221.42-6.85Q221.22-6.75 219.57-4.85 217.92-2.95 215.75-1.2 213.57 0.55 211.82 0.55ZM249.32-29.25L249.32-29.25Q250.22-29.6 250.87-29.6L250.87-29.6Q253.07-29.6 253.77-28.4L253.77-28.4Q254.17-27.8 254.17-27.35L254.17-27.35Q254.17-23.95 248.47-18.8L248.47-18.8Q243.42-14.35 239.17-11.15L239.17-11.15Q237.77-8 236.27-3.4L236.27-3.4Q238.07-5.6 240.82-8.5L240.82-8.5Q246.37-14.25 248.57-14.25L248.57-14.25Q249.67-14.25 249.72-13.15L249.72-13.15Q249.82-12 249.25-10.95 248.67-9.9 248.17-9L248.17-9Q245.82-5.1 245.82-2.05L245.82-2.05Q245.82-1.05 246.22-0.6L246.22-0.6Q246.92 0.2 248.22-0.5 249.52-1.2 251.85-3.3 254.17-5.4 255.62-7.4L255.62-7.4Q255.87-7.65 256.1-7.53 256.32-7.4 256.32-7.28 256.32-7.15 256.22-7L256.22-7Q255.47-5.65 253.52-3.58 251.57-1.5 250.37-0.6L250.37-0.6Q248.07 1.15 245.97 1.15L245.97 1.15Q244.07 1.15 243.42-0.75L243.42-0.75Q243.27-1.2 243.27-1.83 243.27-2.45 243.37-3.15L243.37-3.15Q243.62-5.25 246.02-9.7L246.02-9.7Q246.52-10.6 246.52-10.98 246.52-11.35 246.12-11.35L246.12-11.35Q245.32-11.35 243.02-9.35L243.02-9.35Q241.47-7.9 238.45-3.88 235.42 0.15 235.02 0.4L235.02 0.4Q233.22 1.3 232.8 1.3 232.37 1.3 232.32 1.18 232.27 1.05 232.37 0.85 232.47 0.65 233.17-1.35L233.17-1.35Q235.52-8 236.37-10.15L236.37-10.15Q234.72-8.05 232.27-5.4L232.27-5.4Q231.87-5 231.87-5.58 231.87-6.15 232.32-6.75 232.77-7.35 234.2-9.08 235.62-10.8 236.22-11.65L236.22-11.65Q235.77-11.9 235.75-12.35 235.72-12.8 236.05-12.98 236.37-13.15 237.12-12.85L237.12-12.85Q237.62-13.55 238.02-14.4L238.02-14.4Q243.97-27.2 249.32-29.25ZM252.12-25.5L252.12-25.5Q252.77-26.7 252.77-27.53 252.77-28.35 252.05-28.35 251.32-28.35 250.12-27.45L250.12-27.45Q244.62-23.25 240.17-13.4L240.17-13.4Q243.42-15.5 246.97-19 250.52-22.5 252.12-25.5ZM278.47-7Q277.72-5.65 275.77-3.55 273.82-1.45 272.27-0.3L272.27-0.3Q270.27 1.15 267.92 1.15L267.92 1.15Q267.47 1.15 266.75 0.73 266.02 0.3 265.77-0.5 265.52-1.3 265.52-2.05L265.52-2.05Q265.52-4.65 266.52-7.2L266.52-7.2Q266.37-7.1 265.14-5.08 263.92-3.05 262.14-1.25 260.37 0.55 258.57 0.55L258.57 0.55Q257.72 0.55 256.62 0.1L256.62 0.1Q254.62-0.8 254.62-3.2L254.62-3.2Q254.62-6.15 256.64-9.28 258.67-12.4 259.22-12.6L259.22-12.6Q259.97-12.8 260.64-12.8 261.32-12.8 262.02-12.53 262.72-12.25 261.82-11.6L261.82-11.6Q258.37-8.45 256.92-4.6L256.92-4.6Q256.37-3.1 256.37-2.08 256.37-1.05 256.89-0.75 257.42-0.45 257.92-0.45L257.92-0.45Q259.12-0.45 261.19-2.13 263.27-3.8 266.92-9.1L266.92-9.1Q267.42-9.85 268.67-12.03 269.92-14.2 270.17-14.6L270.17-14.6Q270.97-14.6 272.05-14.23 273.12-13.85 272.77-13.25L272.77-13.25Q270.37-9.25 269.39-7.35 268.42-5.45 268.07-2.9L268.07-2.9Q268.02-2.45 268.02-1.75 268.02-1.05 268.42-0.6L268.42-0.6Q269.17 0.2 270.5-0.53 271.82-1.25 274.12-3.33 276.42-5.4 277.82-7.4L277.82-7.4Q278.02-7.65 278.3-7.53 278.57-7.4 278.57-7.28 278.57-7.15 278.47-7L278.47-7Z" opacity="1" transform="matrix(1,0,0,1,0,0)" fill="#7196b0" class="undefined-text-0" data-fill-palette-color="primary" id="text-0"></path></svg></g></svg></g></svg></g></svg></g><g transform="matrix(1,0,0,1,408.2640999201007,0)"><svg viewBox="0 0 79.69210612314065 74.60455992807049" height="74.60455992807049" width="79.69210612314065"><g><svg version="1.0" xmlns="http://www.w3.org/2000/svg" xmlnsXlink="http://www.w3.org/1999/xlink" x="0" y="0" viewBox="0 0 100 93.61599731445312" enable-background="new 0 0 100 93.615" xmlSpace="preserve" width="79.69210612314065" height="74.60455992807049" class="icon-icon-0" data-fill-palette-color="accent" id="icon-0"><path d="M99.866 23.353C98.533 10.235 87.456 0 73.988 0 63.193 0 53.938 6.575 50 15.937 46.062 6.575 36.807 0 26.013 0 12.544 0 1.466 10.235 0.134 23.353 0.045 24.227 0 25.115 0 26.013c0 31.606 38.788 46.523 50 67.603h0c11.212-21.079 50-35.996 50-67.603C100 25.115 99.955 24.227 99.866 23.353z" fill="#b14a4a" data-fill-palette-color="accent"></path></svg></g></svg></g></svg></g><defs></defs></svg><rect width="395.52" height="60.47181115293686" fill="none" stroke="none" visibility="hidden"></rect></g></svg></g></svg>