<svg width="3992" height="2101" viewBox="0 0 3992 2101" fill="none" xmlns="http://www.w3.org/2000/svg">
<rect width="3992" height="2101" fill="#1A1A34"/>
<rect width="3992" height="2101" fill="#1A1A34"/>
<path d="M924.07 924.625C924.07 902.479 924.07 880.382 924.07 858.236C924.07 856.328 924.02 854.369 924.874 852.561C925.727 850.703 926.832 849.046 928.741 847.991C938.784 842.317 948.778 836.642 958.771 830.967C964.547 827.653 970.372 824.439 976.097 821.074C979.462 819.116 982.826 818.513 986.291 820.723C989.907 822.982 991.313 826.347 991.162 830.515C991.012 833.98 988.752 836.089 986.09 837.646C977.403 842.668 968.614 847.59 959.876 852.511C955.357 855.072 950.887 857.684 946.317 860.194C944.409 861.249 943.706 862.705 943.706 864.865C943.756 878.072 943.756 891.28 943.756 904.487C943.756 904.688 943.756 904.939 943.756 905.14C943.907 907.501 944.308 907.802 946.367 906.697C950.435 904.437 954.402 902.127 958.42 899.817C961.182 898.26 963.843 896.603 966.656 895.097C970.121 893.188 973.586 893.238 976.85 895.599C980.064 897.909 981.32 901.223 980.918 905.09C980.667 907.852 979.21 909.911 976.8 911.317C972.13 914.029 967.459 916.791 962.789 919.553C957.114 922.867 951.49 926.132 945.815 929.396C944.509 930.149 943.806 931.154 943.806 932.66C943.806 933.313 943.756 934.016 943.756 934.669C943.756 947.224 943.756 959.728 943.756 972.283C943.756 976.15 943.806 976.2 947.121 974.392C952.745 971.278 958.319 968.064 963.944 964.951C965.953 963.846 966.857 962.339 966.806 960.029C966.706 955.761 966.857 951.442 966.756 947.173C966.656 941.7 968.765 937.682 973.536 934.87C980.014 931.003 986.442 926.985 992.82 922.918C997.038 920.206 1001.16 919.854 1005.58 922.315C1010.2 924.876 1015.17 926.835 1019.69 929.697C1021.44 930.802 1022.9 930.752 1024.66 929.647C1032.14 924.977 1039.67 920.407 1047.21 915.837C1048.81 914.832 1049.47 913.527 1049.47 911.618C1049.42 902.127 1049.42 892.636 1049.47 883.144C1049.47 880.985 1048.66 879.478 1046.7 878.524C1046 878.173 1045.35 877.771 1044.7 877.319C1042.89 876.114 1041.18 876.164 1039.32 877.319C1035.86 879.428 1032.34 881.437 1028.83 883.496C1025.41 885.505 1022 885.454 1018.58 883.496C1011.65 879.529 1004.62 875.612 997.691 871.644C994.979 870.088 993.724 867.376 993.573 864.614C993.071 856.277 992.97 847.941 993.623 839.605C993.874 836.692 995.23 834.231 996.586 831.72C999.298 826.749 1002.01 821.827 1004.62 816.856C1006.73 812.838 1009.49 809.624 1013.51 807.364C1021.39 802.945 1029.13 798.325 1036.96 793.855C1040.48 791.847 1044.09 791.997 1047.56 794.107C1052.68 797.22 1057.75 800.384 1062.93 803.397C1067.24 805.908 1069.3 809.524 1069.2 814.546C1069.05 818.965 1069.1 823.334 1069.2 827.753C1069.3 832.825 1067.34 836.692 1063.23 839.555C1059.51 842.116 1055.94 844.928 1052.28 847.489C1046 851.858 1038.27 846.033 1037.82 840.659C1037.51 836.893 1039.02 833.83 1041.88 831.469C1043.89 829.812 1046.05 828.406 1048.11 826.749C1051.32 824.188 1051.02 818.915 1047.61 816.705C1041.98 813.089 1041.98 813.089 1036.31 816.454C1032.39 818.714 1028.53 821.024 1024.61 823.233C1023.5 823.886 1022.55 824.589 1021.95 825.744C1019.44 830.415 1016.87 835.035 1014.26 839.705C1013.31 841.413 1012.91 843.271 1012.96 845.229C1013.01 848.594 1013.01 852.009 1012.96 855.373C1012.91 857.282 1013.61 858.587 1015.32 859.491C1017.63 860.697 1019.89 862.002 1022.1 863.258C1023.5 864.061 1024.71 863.559 1025.91 862.856C1029.13 860.998 1032.39 859.19 1035.56 857.181C1039.92 854.369 1044.14 854.369 1048.56 857.131C1053.53 860.245 1058.61 863.208 1063.63 866.271C1067.44 868.581 1069.2 872.096 1069.2 876.465C1069.25 890.476 1069.25 904.487 1069.2 918.448C1069.2 922.466 1067.6 925.68 1064.08 927.789C1057.85 931.656 1051.58 935.472 1045.35 939.389C1040.68 942.302 1035.96 945.215 1031.34 948.278C1026.16 951.793 1020.94 952.245 1015.42 949.132C1011.5 946.922 1007.48 944.863 1003.57 942.553C1001.41 941.298 999.499 941.047 997.339 942.603C994.879 944.361 992.217 945.918 989.555 947.374C987.346 948.63 986.392 950.237 986.442 952.848C986.542 958.272 985.638 963.645 985.789 969.069C985.89 972.785 983.68 975.447 980.617 977.305C975.494 980.368 970.322 983.381 965.099 986.344C957.466 990.713 949.782 995.032 942.149 999.351C941.044 999.953 939.939 1000.51 938.885 1001.16C932.758 1005.03 923.97 1000.46 924.07 991.969C924.321 973.237 924.12 954.505 924.12 935.723C924.07 932.058 924.07 928.341 924.07 924.625Z" fill="#8080FF"/>
<path d="M898.66 878.223C899.263 877.169 898.962 876.013 898.962 874.959C898.962 849.649 898.962 824.389 898.962 799.078C898.962 798.727 899.012 798.375 898.962 798.074C898.761 796.969 899.564 795.412 897.957 794.81C896.903 794.408 894.643 796.467 894.342 797.873C894.091 799.329 894.04 800.786 893.689 802.242C892.634 806.812 889.119 809.624 884.499 809.674C879.929 809.725 876.012 806.963 875.058 802.443C874.103 798.124 874.204 793.705 875.007 789.336C875.61 785.821 878.171 783.661 881.034 781.954C886.759 778.539 892.484 775.174 898.259 771.81C900.418 770.554 902.628 769.449 904.787 768.194C909.709 765.432 917.794 769.499 917.995 776.379C918.045 777.384 917.995 778.388 917.995 779.443C917.995 829.21 917.995 879.027 917.995 928.793C917.995 929.697 917.995 930.601 917.995 931.505C917.794 936.176 915.283 939.189 910.663 940.444C906.746 941.499 902.829 939.892 900.519 936.226C898.61 933.263 897.656 929.848 896.35 926.584C891.128 913.226 886.005 899.867 880.833 886.509C877.418 877.671 873.953 868.832 870.538 859.994C870.337 859.492 870.136 858.989 869.734 857.985C869.082 859.592 869.282 860.747 869.282 861.902C869.282 890.326 869.282 918.8 869.282 947.224C869.282 948.479 869.282 949.684 869.232 950.94C869.082 955.008 866.872 957.669 863.256 959.226C859.49 960.783 855.974 960.13 852.811 957.519C851.455 956.414 850.601 955.008 850.3 953.25C849.898 951.141 849.597 949.032 849.597 946.872C849.597 900.57 849.597 854.319 849.597 808.017C849.597 805.757 849.848 803.548 850.701 801.388C852.208 797.773 855.02 795.965 858.737 795.513C862.603 795.111 865.516 796.768 867.525 800.032C869.132 802.644 870.036 805.557 871.141 808.419C876.815 822.932 882.39 837.445 888.014 851.959C891.128 860.044 894.291 868.179 897.405 876.265C897.706 877.018 897.606 877.922 898.66 878.223Z" fill="#8080FF"/>
<path d="M968.815 654.648C968.815 643.048 968.764 631.397 968.815 619.797C968.865 614.323 972.681 610.305 977.954 609.904C980.315 609.753 982.424 610.506 984.433 611.611C999.599 619.646 1014.87 627.43 1030.18 635.164C1040.63 640.487 1051.02 645.961 1061.42 651.434C1064.98 653.293 1067.14 656.105 1067.09 660.323C1067.04 664.039 1065.54 666.902 1062.17 668.559C1053.33 672.828 1044.49 677.046 1035.61 681.264C1034.4 681.867 1033.14 682.419 1031.94 683.022C1024.21 686.738 1016.52 690.505 1008.79 694.221C1005.88 695.627 1002.91 696.33 999.649 695.024C995.581 693.417 993.372 690.555 993.321 686.337C993.171 678 993.171 669.614 993.321 661.277C993.422 656.808 996.033 653.694 1000 652.439C1003.87 651.183 1007.94 652.288 1010.5 655.251C1012.4 657.461 1012.76 660.122 1012.86 662.834C1012.96 664.742 1012.81 666.701 1012.96 668.609C1013.06 670.267 1013.66 670.518 1015.22 669.965C1015.62 669.815 1016.02 669.563 1016.42 669.363C1021.8 666.751 1027.07 663.889 1032.59 661.579C1033.5 661.227 1034.85 660.976 1034.95 659.871C1035.05 658.666 1033.65 658.515 1032.79 658.063C1021.24 652.138 1009.69 646.262 998.142 640.336C995.531 638.98 993.02 637.474 990.409 636.168C988.45 635.214 988.048 635.465 987.898 637.574C987.848 638.478 987.898 639.382 987.898 640.286C987.898 658.917 987.747 677.548 987.998 696.129C988.048 701.553 986.04 705.169 981.47 707.73C972.029 713.053 962.688 718.477 953.297 723.9C947.924 727.014 942.55 730.127 937.177 733.191C935.419 734.195 933.561 735.049 931.753 736.003C926.38 738.865 918.696 734.396 918.696 727.767C918.747 716.267 918.646 704.767 918.746 693.217C918.797 687.994 922.312 684.529 927.485 684.328C932.557 684.077 937.177 687.893 937.629 692.815C937.83 694.924 937.729 697.083 937.729 699.243C937.729 701.854 937.729 704.415 937.729 707.027C937.779 710.291 938.03 710.442 940.893 708.835C949.229 704.064 957.515 699.293 965.902 694.623C968.162 693.367 968.965 691.66 968.965 689.149C968.714 677.699 968.764 666.199 968.815 654.648C968.815 654.648 968.764 654.648 968.815 654.648Z" fill="#8080FF"/>
<path d="M849.545 614.624C849.545 594.637 849.545 574.7 849.545 554.713C849.545 550.746 850.6 547.381 853.964 545.021C857.279 542.661 860.643 542.46 864.108 544.418C876.161 551.298 888.213 558.178 900.216 565.109C902.927 566.716 904.786 569.026 905.388 572.29C905.69 574.098 905.79 575.855 905.79 577.663C905.79 602.471 905.79 627.33 905.79 652.138C905.79 653.142 905.84 654.197 905.74 655.201C905.288 659.219 903.731 662.483 899.965 664.542C889.268 670.417 878.672 676.343 868.025 682.269C866.82 682.922 865.715 683.675 864.51 684.278C857.58 687.944 850.047 683.725 849.595 675.891C849.545 674.786 849.545 673.631 849.545 672.527C849.545 653.243 849.545 633.908 849.545 614.624ZM886.154 614.674C886.154 604.078 886.104 593.432 886.205 582.836C886.205 580.325 885.552 578.617 883.141 577.462C880.028 575.956 877.065 573.997 874.052 572.24C872.796 571.537 871.541 569.98 870.135 570.683C868.427 571.486 869.281 573.545 869.231 575.002C869.18 601.417 869.18 627.832 869.18 654.247C869.18 654.9 869.18 655.603 869.18 656.256C869.331 658.917 869.934 659.319 872.244 658.064C875.608 656.205 878.822 654.096 882.288 652.489C885.2 651.184 886.205 649.325 886.154 646.162C886.054 635.666 886.154 625.17 886.154 614.674Z" fill="#8080FF"/>
<path d="M689.095 622.157C690.3 622.057 691.254 622.709 692.208 623.262C698.938 627.129 705.717 630.945 712.446 634.862C725.252 642.245 738.008 649.677 750.814 657.059C751.868 657.662 752.973 658.315 753.977 658.967C755.936 660.223 755.936 660.876 753.977 661.981C749.407 664.642 744.787 667.253 740.217 669.915C729.169 676.293 718.121 682.62 707.073 688.998C701.9 691.961 696.678 694.924 691.555 697.937C689.948 698.891 688.593 698.992 686.835 697.987C675.536 691.409 664.186 684.93 652.837 678.402C643.747 673.179 634.708 667.856 625.618 662.633C625.116 662.332 624.614 662.131 624.162 661.78C622.856 660.775 622.756 660.072 624.162 659.218C626.924 657.461 629.786 655.854 632.599 654.197C648.217 645.157 663.835 636.168 679.453 627.129C681.713 625.823 683.922 624.517 686.182 623.212C687.186 622.659 688.09 622.207 689.095 622.157Z" fill="#A3A3FF"/>
<path d="M833.323 705.52C833.172 706.224 832.369 706.475 831.716 706.826C825.941 710.141 820.166 713.455 814.441 716.769C799.877 725.156 785.314 733.543 770.801 742.03C768.24 743.536 766.231 743.335 763.67 741.829C749.96 733.743 736.15 725.859 722.39 717.924C716.213 714.359 710.086 710.844 703.909 707.278C703.508 707.077 703.156 706.826 702.805 706.525C701.449 705.42 701.449 704.617 702.905 703.612C704.713 702.457 706.621 701.453 708.479 700.348C727.06 689.651 745.691 679.055 764.172 668.208C766.783 666.701 768.742 666.952 771.052 668.308C778.334 672.577 785.665 676.795 792.997 681.064C805.703 688.396 818.408 695.728 831.063 703.11C831.666 703.461 832.268 703.763 832.821 704.114C833.122 704.466 833.424 704.817 833.323 705.52Z" fill="#A3A3FF"/>
<path d="M767.64 653.594C766.385 653.594 765.682 653.042 764.878 652.59C756.642 647.869 748.456 643.098 740.221 638.378C728.67 631.749 717.12 625.12 705.57 618.491C704.113 617.637 701.954 617.135 701.753 615.428C701.552 613.369 703.963 613.218 705.369 612.415C724.954 601.015 744.59 589.665 764.175 578.216C766.385 576.91 768.042 576.86 770.352 578.165C785.618 587.154 801.036 595.893 816.352 604.781C821.424 607.694 826.496 610.657 831.518 613.67C833.828 615.076 833.828 615.428 831.569 616.784C823.684 621.454 815.8 626.024 807.865 630.594C798.374 636.068 788.933 641.541 779.441 647.015C776.027 648.974 772.612 650.983 769.147 652.891C768.695 653.293 768.042 653.443 767.64 653.594Z" fill="#A3A3FF"/>
<path d="M618.541 888.317C618.541 877.72 618.541 867.074 618.541 856.478C618.541 855.574 618.491 854.67 618.541 853.766C618.692 851.456 619.144 851.205 621.253 852.36C628.334 856.327 635.365 860.395 642.395 864.463C655 871.744 667.555 879.076 680.26 886.207C682.621 887.563 683.625 889.17 683.625 891.832C683.575 914.179 683.575 936.527 683.575 958.874C683.575 959.426 683.575 960.029 683.525 960.581C683.324 962.239 682.821 962.54 681.315 961.736C678.402 960.18 675.59 958.573 672.727 956.966C657.109 947.926 641.441 938.937 625.823 929.898C624.568 929.144 623.362 928.291 622.007 927.688C619.345 926.583 618.441 924.675 618.491 921.812C618.592 910.664 618.541 899.465 618.541 888.317Z" fill="#A3A3FF"/>
<path d="M618.538 798.978C618.538 788.231 618.538 777.534 618.538 766.787C618.538 761.314 618.589 761.263 623.209 763.925C642.292 774.873 661.325 785.921 680.408 796.868C682.618 798.124 683.622 799.681 683.622 802.292C683.572 824.539 683.572 846.786 683.572 869.033C683.572 869.133 683.572 869.234 683.572 869.384C683.421 872.749 682.668 873.201 679.655 871.494C669.209 865.467 658.764 859.391 648.268 853.365C639.781 848.443 631.294 843.471 622.707 838.751C619.694 837.094 618.287 835.185 618.388 831.57C618.689 820.622 618.538 809.825 618.538 798.978Z" fill="#A3A3FF"/>
<path d="M761.514 790.239C761.514 801.087 761.514 811.934 761.514 822.731C761.514 827.502 760.911 827.903 756.844 825.593C748.809 821.023 740.824 816.353 732.789 811.733C721.841 805.405 710.944 799.028 699.946 792.851C697.485 791.445 696.38 789.787 696.43 786.975C696.531 764.728 696.481 742.481 696.481 720.285C696.481 719.833 696.481 719.381 696.481 718.929C696.681 716.619 697.083 716.317 699.192 717.523C705.771 721.239 712.299 725.055 718.828 728.822C730.479 735.501 742.129 742.18 753.73 748.909C755.287 749.813 756.793 750.818 758.4 751.621C760.66 752.776 761.564 754.484 761.564 757.095C761.464 765.23 761.514 773.366 761.514 781.501C761.514 784.364 761.514 787.327 761.514 790.239Z" fill="#A3A3FF"/>
<path d="M684.273 746.75C684.273 757.346 684.273 767.992 684.273 778.588C684.273 779.392 684.323 780.145 684.273 780.949C684.122 783.61 683.821 783.861 681.51 782.606C677.744 780.547 674.028 778.387 670.312 776.228C654.593 767.138 638.875 757.999 623.106 749.009C620.344 747.453 619.139 745.595 619.139 742.33C619.289 720.535 619.189 698.74 619.239 676.996C619.239 675.69 618.687 673.983 619.942 673.179C621.248 672.325 622.453 673.782 623.558 674.435C640.984 684.428 658.36 694.472 675.735 704.516C677.493 705.52 679.251 706.575 681.008 707.529C683.369 708.734 684.323 710.542 684.273 713.254C684.172 724.402 684.273 735.601 684.273 746.75Z" fill="#A3A3FF"/>
<path d="M696.428 933.765C696.428 923.269 696.428 912.773 696.428 902.278C696.428 901.474 696.428 900.721 696.428 899.917C696.528 896.703 696.829 896.452 699.642 898.059C707.576 902.529 715.511 907.099 723.445 911.669C735.096 918.348 746.697 925.127 758.347 931.756C760.607 933.012 761.511 934.619 761.511 937.18C761.461 959.427 761.461 981.623 761.461 1003.87C761.461 1004.07 761.461 1004.32 761.461 1004.52C761.31 1007.39 760.557 1007.84 758.146 1006.48C752.271 1003.12 746.395 999.752 740.57 996.337C726.91 988.403 713.301 980.468 699.541 972.634C697.281 971.328 696.327 969.872 696.327 967.311C696.478 956.112 696.428 944.913 696.428 933.765Z" fill="#A3A3FF"/>
<path d="M838.749 1014.87C838.749 1025.46 838.749 1036.06 838.749 1046.66C838.749 1047.31 838.749 1048.01 838.749 1048.67C838.649 1052.23 838.147 1052.53 835.033 1050.72C820.872 1042.59 806.71 1034.35 792.548 1026.22C787.577 1023.36 782.655 1020.39 777.583 1017.63C775.373 1016.42 774.269 1014.92 774.269 1012.31C774.319 989.759 774.319 967.211 774.319 944.612C774.319 944.16 774.319 943.708 774.369 943.256C774.57 941.599 775.072 941.247 776.579 942.101C780.345 944.16 784.061 946.32 787.777 948.429C802.04 956.665 816.251 964.9 830.514 973.136C832.171 974.091 833.778 975.145 835.535 975.949C837.946 977.104 838.9 978.861 838.85 981.623C838.699 992.772 838.749 1003.82 838.749 1014.87Z" fill="#A3A3FF"/>
<path d="M760.86 880.131C760.86 891.179 760.86 902.227 760.86 913.326C760.86 917.444 760.508 917.594 757.043 915.636C738.462 904.939 719.881 894.343 701.351 883.546C696.228 880.583 696.48 881.688 696.48 875.109C696.48 854.118 696.48 833.126 696.48 812.135C696.48 811.482 696.48 810.779 696.48 810.126C696.53 806.46 696.781 806.259 699.995 808.067C709.888 813.692 719.781 819.366 729.624 825.041C739.015 830.465 748.305 835.989 757.746 841.262C760.057 842.567 760.91 844.074 760.91 846.635C760.81 857.834 760.86 868.982 760.86 880.131Z" fill="#A3A3FF"/>
<path d="M774.318 799.53C774.318 788.934 774.318 778.337 774.318 767.741C774.318 766.938 774.268 766.184 774.318 765.381C774.419 762.82 774.921 762.518 777.13 763.774C781.65 766.335 786.12 768.997 790.589 771.558C805.052 779.894 819.515 788.23 833.978 796.517C834.48 796.818 834.932 797.119 835.434 797.37C838.096 798.525 838.799 800.534 838.799 803.346C838.699 825.242 838.749 847.137 838.749 868.982C838.749 873.703 838.347 873.904 834.33 871.543C815.297 860.545 796.264 849.548 777.181 838.6C775.021 837.344 774.268 835.737 774.318 833.377C774.368 822.078 774.318 810.829 774.318 799.53Z" fill="#A3A3FF"/>
<path d="M774.319 888.267C774.319 877.319 774.319 866.371 774.319 855.424C774.319 851.105 774.369 851.055 777.985 853.114C792.649 861.55 807.313 869.987 821.976 878.424C826.647 881.136 831.317 883.948 836.038 886.509C837.996 887.564 838.749 888.92 838.749 891.079C838.699 913.778 838.699 936.477 838.699 959.125C838.699 959.577 838.699 960.029 838.649 960.481C838.448 962.038 837.996 962.289 836.69 961.586C834.883 960.632 833.175 959.577 831.418 958.573C817.658 950.638 803.847 942.654 790.087 934.719C785.668 932.158 781.349 929.597 776.88 927.136C774.921 926.082 774.269 924.525 774.269 922.416C774.319 916.64 774.269 910.915 774.269 905.14C774.319 899.566 774.319 893.942 774.319 888.267Z" fill="#A3A3FF"/>
<path d="M897.653 994.73C894.69 995.986 892.229 997.794 889.618 999.3C886.705 1000.96 883.692 1002.06 880.327 1000.46C876.611 998.647 874.653 995.484 874.301 991.667C873.95 988.202 875.607 985.289 878.67 983.431C886.906 978.51 895.092 973.488 903.478 968.868C910.157 965.202 917.69 969.721 917.991 977.405C918.142 981.924 918.393 986.444 917.59 990.914C917.389 992.018 917.439 993.174 917.439 994.278C917.439 998.698 917.389 1003.07 917.439 1007.49C917.439 1011.3 915.882 1014.16 912.518 1016.07C898.958 1023.91 885.45 1031.84 871.891 1039.73C869.078 1041.38 866.417 1043.39 863.353 1044.55C858.281 1046.51 852.807 1043.99 850.899 1038.92C850.447 1037.72 850.347 1036.51 850.347 1035.26C850.347 1016.27 850.347 997.342 850.347 978.359C850.347 973.789 852.155 970.374 856.273 968.114C861.545 965.252 866.618 962.138 871.84 959.226C874 958.02 874.803 956.464 874.753 954.053C874.653 946.621 874.653 939.138 874.753 931.706C874.803 925.328 878.469 921.863 884.747 922.014C890.02 922.164 893.685 925.679 893.736 931.003C893.836 941.699 893.786 952.446 893.786 963.193C893.786 966.909 891.978 969.671 888.915 971.579C884.797 974.141 880.528 976.451 876.36 978.911C868.978 983.18 870.183 981.774 870.133 989.206C870.083 997.442 870.083 1005.68 870.133 1013.91C870.133 1017.98 870.535 1018.28 873.95 1016.27C881.081 1012.11 888.111 1007.84 895.292 1003.82C897.854 1002.41 898.908 1000.61 898.557 997.844C898.205 996.99 898.557 995.936 897.653 994.73Z" fill="#A3A3FF"/>
<path d="M849.543 739.016C849.543 729.776 849.744 720.486 849.493 711.245C849.342 705.018 851.953 700.699 857.176 697.636C871.338 689.199 885.449 680.712 899.611 672.326C903.578 669.965 908.198 670.417 911.211 673.33C914.074 676.042 915.078 681.214 913.471 684.579C912.517 686.588 910.86 687.944 909.002 689.099C902.423 693.066 895.794 696.933 889.216 700.9C883.692 704.215 878.268 707.68 872.643 710.793C869.982 712.25 868.877 714.158 869.178 717.071C869.229 717.422 869.178 717.724 869.178 718.075C869.229 721.389 869.48 721.54 872.292 719.933C879.724 715.614 887.106 711.245 894.489 706.927C896.045 706.023 897.602 705.119 899.259 704.365C903.478 702.457 907.144 703.311 910.157 706.876C913.019 710.241 913.371 715.012 911.011 718.527C910.207 719.682 909.102 720.486 907.947 721.138C900.113 725.809 892.229 730.479 884.344 735.099C880.076 737.61 875.757 740.121 871.488 742.582C869.982 743.436 869.128 744.641 869.178 746.398C869.178 747.754 869.078 749.11 869.178 750.466C869.279 752.174 869.831 752.475 871.338 751.571C875.556 749.16 879.775 746.75 883.943 744.339C889.316 741.226 894.689 738.112 900.063 735.049C901.62 734.145 903.227 733.342 905.085 733.241C910.006 732.89 913.522 735.35 915.179 740.473C916.484 744.49 914.978 748.508 910.96 750.868C903.679 755.187 896.347 759.405 889.015 763.623C881.683 767.842 874.351 772.06 866.969 776.228C865.964 776.781 864.96 777.233 864.006 777.835C858.03 781.401 850.346 777.333 849.543 769.951C849.442 768.846 849.442 767.691 849.442 766.586C849.543 757.296 849.543 748.156 849.543 739.016Z" fill="#8080FF"/>
<path d="M1049.37 729.626C1049.37 720.385 1049.37 711.145 1049.37 701.855C1049.37 699.243 1049.37 696.682 1048.92 694.121C1048.41 691.409 1048.97 688.697 1049.77 686.136C1050.87 682.621 1055.69 680.009 1059.66 680.562C1064.83 681.265 1067.95 684.529 1068.35 689.802C1068.45 691.058 1068.4 692.263 1068.4 693.518C1068.4 705.018 1068.1 716.569 1068.5 728.019C1069.05 744.591 1069.05 761.163 1069.05 777.735C1069.05 778.74 1069 779.744 1069.05 780.799C1069.25 788.934 1061.52 793.253 1054.04 789.537C1050.82 787.93 1047.56 786.323 1044.45 784.565C1042.44 783.46 1040.78 783.561 1038.77 784.766C1034.85 787.176 1030.84 789.537 1026.72 791.646C1018.98 795.663 1011.8 791.244 1011.5 782.456C1011.45 780.999 1011.4 779.543 1011.5 778.036C1011.9 768.997 1010.85 760.008 1010.75 751.019C1010.7 745.997 1012.61 742.23 1016.62 739.569C1021.14 736.556 1025.71 733.643 1030.38 730.981C1035.31 728.169 1040.68 729.374 1043.54 733.643C1046.45 737.962 1045.45 743.837 1041.13 746.851C1038.57 748.658 1035.86 750.316 1033.1 751.872C1031.19 752.927 1030.33 754.383 1030.38 756.543C1030.43 759.255 1030.33 761.966 1030.43 764.678C1030.48 766.436 1030.99 766.687 1032.54 766.034C1033.5 765.632 1034.4 765.18 1035.26 764.678C1038.72 762.67 1042.29 762.67 1046 763.925C1049.02 764.929 1049.27 764.779 1049.27 761.565C1049.42 750.818 1049.42 740.222 1049.37 729.626C1049.42 729.626 1049.42 729.626 1049.37 729.626Z" fill="#A3A3FF"/>
<path d="M941.947 659.771C942.55 658.214 942.299 656.858 942.299 655.502C942.299 639.683 942.299 623.915 942.299 608.096C942.299 607.091 942.299 606.087 942.299 605.032C942.449 599.257 945.864 595.742 951.589 595.642C957.063 595.541 960.98 599.157 961.281 604.781C961.332 605.786 961.332 606.79 961.332 607.845C961.332 632.201 961.332 656.607 961.332 680.963C961.332 681.968 961.382 683.022 961.281 684.027C960.829 691.208 953.096 695.376 946.869 691.911C945.463 691.158 944.307 690.103 943.152 688.948C934.163 679.909 925.124 670.919 916.085 661.88C913.423 659.269 911.967 656.306 911.615 652.389C911.264 648.271 911.816 644.304 911.816 640.286C911.766 623.714 911.816 607.091 911.816 590.519C911.816 589.515 911.816 588.51 911.816 587.456C911.967 581.63 915.381 578.165 921.056 578.015C926.53 577.864 930.447 581.53 930.799 587.104C930.849 588.209 930.849 589.364 930.849 590.469C930.849 608.749 930.899 627.028 930.799 645.308C930.799 648.271 931.602 650.48 933.812 652.439C935.921 654.297 937.829 656.406 939.838 658.365C940.39 658.967 940.893 659.62 941.947 659.771Z" fill="#8080FF"/>
<path d="M985.739 775.827C985.739 766.134 985.739 756.392 985.739 746.7C985.739 745.796 985.739 744.892 985.689 743.988C985.589 742.733 984.835 742.481 983.831 742.984C982.726 743.536 981.672 744.139 980.567 744.741C973.787 748.508 966.957 752.324 960.178 756.091C958.671 756.894 957.115 757.497 955.357 757.547C950.435 757.748 947.121 755.639 945.665 751.27C944.208 747.001 945.715 742.582 949.682 740.071C952.946 738.012 956.311 736.204 959.676 734.346C977.303 724.503 994.929 714.66 1012.56 704.817C1016.98 702.357 1021.39 699.795 1025.76 697.285C1027.82 696.129 1029.93 695.125 1032.44 695.125C1037.21 695.125 1040.73 697.435 1041.98 701.654C1043.24 705.872 1041.58 710.392 1037.62 712.702C1030.99 716.569 1024.31 720.285 1017.63 724.051C1014.11 726.06 1010.55 728.069 1007.03 730.027C1005.58 730.831 1004.87 731.935 1004.92 733.593C1004.92 734.597 1004.92 735.601 1004.92 736.656C1004.92 758.903 1004.92 781.1 1004.92 803.347C1004.92 804.251 1004.87 805.154 1004.92 806.058C1005.12 812.637 1000.75 815.399 995.482 815.7C991.163 815.951 985.739 812.235 985.89 806.008C986.041 799.48 985.89 792.901 985.89 786.373C985.739 782.857 985.739 779.342 985.739 775.827Z" fill="#8080FF"/>
<path d="M943.053 784.163C943.053 791.144 943.053 798.174 943.053 805.155C943.053 805.958 943.053 806.711 943.103 807.515C943.203 808.67 943.705 809.273 944.86 808.62C949.983 805.757 955.105 802.895 960.177 799.982C961.332 799.329 961.885 798.224 961.935 796.869C961.985 795.161 962.035 793.454 961.935 791.796C961.834 789.989 961.433 789.687 959.524 790.139C951.59 791.897 946.819 784.414 947.924 778.388C948.526 775.224 950.887 773.366 953.347 771.759C957.516 769.098 961.985 766.788 966.053 764.026C972.38 759.707 981.319 765.08 981.118 772.312C980.817 783.008 981.018 793.755 981.018 804.452C981.018 808.318 979.26 811.231 975.996 813.089C965.199 819.266 954.402 825.292 943.605 831.419C941.747 832.474 939.939 833.629 937.98 834.533C931.603 837.496 925.225 834.181 923.869 827.301C923.568 825.744 923.417 824.188 923.417 822.581C923.417 803.397 923.417 784.213 923.417 765.03C923.417 763.222 923.618 761.414 923.969 759.656C924.974 754.835 928.69 751.923 933.662 752.073C939.085 752.224 942.4 755.187 942.952 760.46C943.053 761.464 943.053 762.469 943.053 763.523C943.053 770.403 943.053 777.283 943.053 784.163Z" fill="#A3A3FF"/>
<path d="M838.748 749.713C838.748 759.958 838.748 770.252 838.748 780.497C838.748 784.615 838.346 784.766 834.931 782.807C817.154 772.563 799.376 762.318 781.599 752.023C781.398 751.923 781.197 751.822 780.996 751.672C778.385 750.065 778.335 749.412 781.097 747.805C787.424 744.089 793.802 740.473 800.129 736.807C811.378 730.329 822.577 723.85 833.826 717.372C835.132 716.619 836.588 714.962 838.045 715.815C839.501 716.669 838.697 718.728 838.697 720.235C838.798 730.128 838.748 739.92 838.748 749.713Z" fill="#A3A3FF"/>
<path d="M838.75 660.625C838.75 670.468 838.75 680.26 838.75 690.103C838.75 690.907 838.8 691.71 838.75 692.463C838.599 694.573 838.097 694.924 836.239 693.92C832.975 692.112 829.761 690.254 826.547 688.396C811.782 679.909 797.018 671.371 782.254 662.885C781.852 662.684 781.45 662.433 781.099 662.181C779.14 660.826 779.09 659.922 781.149 658.716C785.417 656.155 789.736 653.694 794.005 651.234C807.865 643.249 821.776 635.214 835.636 627.229C836.038 627.028 836.39 626.727 836.791 626.526C837.846 625.974 838.549 626.175 838.7 627.43C838.8 628.334 838.75 629.238 838.75 630.142C838.75 640.336 838.75 650.48 838.75 660.625Z" fill="#A3A3FF"/>
<path d="M838.748 570.733C838.748 580.325 838.748 589.917 838.748 599.509C838.748 600.161 838.748 600.864 838.748 601.517C838.648 604.882 838.095 605.284 835.283 603.626C827.951 599.408 820.669 595.089 813.337 590.871C803.494 585.196 793.601 579.521 783.708 573.847C782.302 573.043 780.092 572.591 779.942 570.834C779.841 569.076 782.051 568.724 783.357 567.971C796.012 560.589 808.717 553.307 821.423 545.975C825.992 543.314 830.613 540.652 835.182 538.041C838.547 536.132 838.698 536.183 838.698 540.25C838.748 550.395 838.748 560.589 838.748 570.733Z" fill="#A3A3FF"/>
<path d="M970.823 864.563C973.133 864.413 975.091 865.568 977.05 866.723C984.432 871.092 991.764 875.461 999.146 879.83C1007.18 884.601 1015.27 889.321 1023.3 894.142C1025.06 895.197 1026.62 895.398 1028.27 894.142C1028.93 893.69 1029.63 893.339 1030.33 892.937C1034.95 890.526 1040.28 891.932 1043.04 896.301C1045.35 899.967 1045.3 904.136 1042.23 907.199C1038.07 911.417 1032.84 914.23 1027.32 916.188C1024.86 917.092 1022.45 915.837 1020.29 914.581C1013.96 910.865 1007.68 907.099 1001.36 903.382C992.115 897.909 982.925 892.485 973.735 887.011C971.576 885.705 969.617 885.454 967.508 887.061C966.152 888.066 964.646 888.869 963.189 889.673C957.414 892.786 950.584 889.873 948.927 883.596C947.973 879.83 949.178 876.566 952.141 874.255C956.661 870.69 961.733 867.928 966.805 865.216C968.01 864.613 969.366 864.513 970.823 864.563Z" fill="#A3A3FF"/>
<path d="M439.036 1306.61H474.729V1402.87H499.093V1306.61H534.786V1286.29H439.036V1306.61ZM574.35 1352.32C574.407 1341.05 581.295 1334.45 591.2 1334.45C601.048 1334.45 606.855 1340.77 606.798 1351.53V1402.87H631.048V1347.2C631.105 1326.71 619.037 1314.3 600.82 1314.3C587.557 1314.3 578.676 1320.56 574.691 1330.86H573.667V1286.29H550.099V1402.87H574.35V1352.32ZM689.981 1404.58C711.613 1404.58 726.187 1394.05 729.602 1377.83L707.173 1376.35C704.725 1383.01 698.463 1386.48 690.38 1386.48C678.255 1386.48 670.569 1378.45 670.569 1365.42V1365.36H730.114V1358.7C730.114 1328.98 712.126 1314.3 689.014 1314.3C663.283 1314.3 646.603 1332.57 646.603 1359.55C646.603 1387.27 663.055 1404.58 689.981 1404.58ZM670.569 1350.33C671.082 1340.37 678.653 1332.4 689.412 1332.4C699.943 1332.4 707.23 1339.91 707.287 1350.33H670.569ZM807.292 1286.29H783.042V1402.87H807.292V1286.29ZM866.567 1404.58C888.199 1404.58 902.772 1394.05 906.188 1377.83L883.759 1376.35C881.311 1383.01 875.049 1386.48 866.965 1386.48C854.84 1386.48 847.155 1378.45 847.155 1365.42V1365.36H906.7V1358.7C906.7 1328.98 888.711 1314.3 865.599 1314.3C839.868 1314.3 823.189 1332.57 823.189 1359.55C823.189 1387.27 839.641 1404.58 866.567 1404.58ZM847.155 1350.33C847.667 1340.37 855.239 1332.4 865.998 1332.4C876.529 1332.4 883.816 1339.91 883.873 1350.33H847.155ZM947.459 1404.52C960.382 1404.52 968.75 1398.89 973.019 1390.75H973.702V1402.87H996.701V1343.9C996.701 1323.06 979.053 1314.3 959.585 1314.3C938.636 1314.3 924.86 1324.31 921.501 1340.25L943.93 1342.08C945.581 1336.27 950.761 1332 959.471 1332C967.725 1332 972.45 1336.16 972.45 1343.33V1343.67C972.45 1349.31 966.473 1350.05 951.273 1351.53C933.968 1353.12 918.427 1358.93 918.427 1378.45C918.427 1395.76 930.78 1404.52 947.459 1404.52ZM954.404 1387.79C946.947 1387.79 941.596 1384.31 941.596 1377.65C941.596 1370.82 947.232 1367.46 955.771 1366.27C961.065 1365.53 969.718 1364.28 972.621 1362.34V1371.62C972.621 1380.79 965.05 1387.79 954.404 1387.79ZM1015.51 1402.87H1039.77V1353.4C1039.77 1342.64 1047.62 1335.24 1058.32 1335.24C1061.68 1335.24 1066.29 1335.81 1068.57 1336.55V1315.04C1066.41 1314.52 1063.39 1314.18 1060.94 1314.18C1051.15 1314.18 1043.12 1319.87 1039.94 1330.69H1039.03V1315.43H1015.51V1402.87ZM1105.36 1352.32C1105.42 1341.05 1112.13 1334.45 1121.92 1334.45C1131.66 1334.45 1137.52 1340.82 1137.47 1351.53V1402.87H1161.72V1347.2C1161.72 1326.82 1149.76 1314.3 1131.54 1314.3C1118.57 1314.3 1109.17 1320.67 1105.24 1330.86H1104.22V1315.43H1081.11V1402.87H1105.36V1352.32ZM1180.83 1402.87H1205.08V1315.43H1180.83V1402.87ZM1193.01 1304.16C1200.24 1304.16 1206.16 1298.64 1206.16 1291.87C1206.16 1285.15 1200.24 1279.63 1193.01 1279.63C1185.84 1279.63 1179.92 1285.15 1179.92 1291.87C1179.92 1298.64 1185.84 1304.16 1193.01 1304.16ZM1248.76 1352.32C1248.81 1341.05 1255.53 1334.45 1265.32 1334.45C1275.06 1334.45 1280.92 1340.82 1280.86 1351.53V1402.87H1305.11V1347.2C1305.11 1326.82 1293.16 1314.3 1274.94 1314.3C1261.96 1314.3 1252.57 1320.67 1248.64 1330.86H1247.62V1315.43H1224.51V1402.87H1248.76V1352.32ZM1363.62 1437.48C1388.61 1437.48 1406.37 1426.1 1406.37 1403.73V1315.43H1382.29V1330.12H1381.38C1378.14 1323.01 1371.02 1314.3 1356.39 1314.3C1337.21 1314.3 1320.98 1329.21 1320.98 1358.98C1320.98 1388.07 1336.75 1401.62 1356.45 1401.62C1370.39 1401.62 1378.19 1394.62 1381.38 1387.39H1382.41V1403.39C1382.41 1415.4 1374.72 1420.06 1364.19 1420.06C1353.49 1420.06 1348.08 1415.4 1346.09 1410.1L1323.66 1413.12C1326.56 1426.9 1340.05 1437.48 1363.62 1437.48ZM1364.13 1383.4C1352.23 1383.4 1345.74 1373.95 1345.74 1358.87C1345.74 1344.01 1352.12 1333.59 1364.13 1333.59C1375.92 1333.59 1382.52 1343.56 1382.52 1358.87C1382.52 1374.3 1375.8 1383.4 1364.13 1383.4ZM1502.62 1404.58C1524.25 1404.58 1538.82 1394.05 1542.24 1377.83L1519.81 1376.35C1517.36 1383.01 1511.1 1386.48 1503.02 1386.48C1490.89 1386.48 1483.21 1378.45 1483.21 1365.42V1365.36H1542.75V1358.7C1542.75 1328.98 1524.76 1314.3 1501.65 1314.3C1475.92 1314.3 1459.24 1332.57 1459.24 1359.55C1459.24 1387.27 1475.69 1404.58 1502.62 1404.58ZM1483.21 1350.33C1483.72 1340.37 1491.29 1332.4 1502.05 1332.4C1512.58 1332.4 1519.87 1339.91 1519.92 1350.33H1483.21ZM1582.83 1352.32C1582.89 1341.05 1589.6 1334.45 1599.39 1334.45C1609.13 1334.45 1614.99 1340.82 1614.93 1351.53V1402.87H1639.19V1347.2C1639.19 1326.82 1627.23 1314.3 1609.01 1314.3C1596.04 1314.3 1586.64 1320.67 1582.71 1330.86H1581.69V1315.43H1558.58V1402.87H1582.83V1352.32ZM1736.69 1315.43H1711.01L1692.91 1378H1692L1673.84 1315.43H1648.22L1678.79 1402.87H1706.12L1736.69 1315.43ZM1749.1 1402.87H1773.35V1315.43H1749.1V1402.87ZM1761.28 1304.16C1768.51 1304.16 1774.43 1298.64 1774.43 1291.87C1774.43 1285.15 1768.51 1279.63 1761.28 1279.63C1754.11 1279.63 1748.19 1285.15 1748.19 1291.87C1748.19 1298.64 1754.11 1304.16 1761.28 1304.16ZM1792.77 1402.87H1817.02V1353.4C1817.02 1342.64 1824.88 1335.24 1835.58 1335.24C1838.94 1335.24 1843.55 1335.81 1845.83 1336.55V1315.04C1843.67 1314.52 1840.65 1314.18 1838.2 1314.18C1828.41 1314.18 1820.38 1319.87 1817.19 1330.69H1816.28V1315.43H1792.77V1402.87ZM1893.8 1404.58C1920.33 1404.58 1936.84 1386.42 1936.84 1359.49C1936.84 1332.4 1920.33 1314.3 1893.8 1314.3C1867.28 1314.3 1850.77 1332.4 1850.77 1359.49C1850.77 1386.42 1867.28 1404.58 1893.8 1404.58ZM1893.92 1385.79C1881.68 1385.79 1875.42 1374.58 1875.42 1359.32C1875.42 1344.07 1881.68 1332.8 1893.92 1332.8C1905.93 1332.8 1912.19 1344.07 1912.19 1359.32C1912.19 1374.58 1905.93 1385.79 1893.92 1385.79ZM1976.86 1352.32C1976.92 1341.05 1983.63 1334.45 1993.42 1334.45C2003.16 1334.45 2009.02 1340.82 2008.96 1351.53V1402.87H2033.22V1347.2C2033.22 1326.82 2021.26 1314.3 2003.04 1314.3C1990.07 1314.3 1980.67 1320.67 1976.74 1330.86H1975.72V1315.43H1952.61V1402.87H1976.86V1352.32ZM2052.33 1402.87H2076.58V1350.39C2076.58 1340.71 2082.73 1334.28 2090.81 1334.28C2098.78 1334.28 2104.13 1339.74 2104.13 1348.34V1402.87H2127.64V1349.48C2127.64 1340.42 2132.82 1334.28 2141.65 1334.28C2149.39 1334.28 2155.19 1339.12 2155.19 1348.85V1402.87H2179.39V1344.07C2179.39 1325.11 2168.12 1314.3 2151.84 1314.3C2139.03 1314.3 2129.07 1320.84 2125.48 1330.86H2124.57C2121.78 1320.73 2112.84 1314.3 2100.83 1314.3C2089.05 1314.3 2080.11 1320.56 2076.47 1330.86H2075.44V1315.43H2052.33V1402.87ZM2238.39 1404.58C2260.02 1404.58 2274.6 1394.05 2278.01 1377.83L2255.58 1376.35C2253.14 1383.01 2246.87 1386.48 2238.79 1386.48C2226.67 1386.48 2218.98 1378.45 2218.98 1365.42V1365.36H2278.53V1358.7C2278.53 1328.98 2260.54 1314.3 2237.42 1314.3C2211.69 1314.3 2195.01 1332.57 2195.01 1359.55C2195.01 1387.27 2211.47 1404.58 2238.39 1404.58ZM2218.98 1350.33C2219.49 1340.37 2227.06 1332.4 2237.82 1332.4C2248.35 1332.4 2255.64 1339.91 2255.7 1350.33H2218.98ZM2318.6 1352.32C2318.66 1341.05 2325.38 1334.45 2335.17 1334.45C2344.9 1334.45 2350.77 1340.82 2350.71 1351.53V1402.87H2374.96V1347.2C2374.96 1326.82 2363 1314.3 2344.79 1314.3C2331.81 1314.3 2322.42 1320.67 2318.49 1330.86H2317.46V1315.43H2294.35V1402.87H2318.6V1352.32ZM2440.58 1315.43H2424.13V1294.49H2399.88V1315.43H2387.92V1333.65H2399.88V1379.19C2399.76 1396.33 2411.43 1404.81 2429.02 1404.07C2435.29 1403.84 2439.73 1402.59 2442.17 1401.79L2438.36 1383.75C2437.17 1383.97 2434.6 1384.54 2432.33 1384.54C2427.49 1384.54 2424.13 1382.72 2424.13 1376V1333.65H2440.58V1315.43ZM2487.1 1286.29L2529.63 1361.66V1402.87H2554.11V1361.66L2596.63 1286.29H2569.02L2542.44 1336.5H2541.3L2514.71 1286.29H2487.1ZM2710.18 1344.58C2710.18 1306.44 2686.5 1284.69 2655.59 1284.69C2624.51 1284.69 2601 1306.44 2601 1344.58C2601 1382.55 2624.51 1404.47 2655.59 1404.47C2686.5 1404.47 2710.18 1382.72 2710.18 1344.58ZM2685.19 1344.58C2685.19 1369.29 2673.47 1382.66 2655.59 1382.66C2637.66 1382.66 2625.99 1369.29 2625.99 1344.58C2625.99 1319.87 2637.66 1306.5 2655.59 1306.5C2673.47 1306.5 2685.19 1319.87 2685.19 1344.58ZM2800.45 1286.29V1359.89C2800.45 1373.21 2791.12 1382.83 2776.77 1382.83C2762.48 1382.83 2753.09 1373.21 2753.09 1359.89V1286.29H2728.44V1362C2728.44 1387.5 2747.68 1404.52 2776.77 1404.52C2805.75 1404.52 2825.1 1387.5 2825.1 1362V1286.29H2800.45ZM2914.25 1404.3C2928.37 1404.3 2935.71 1396.16 2939.07 1388.87H2940.09V1402.87H2964V1286.29H2939.81V1330.12H2939.07C2935.83 1323.01 2928.82 1314.3 2914.19 1314.3C2895.01 1314.3 2878.79 1329.21 2878.79 1359.27C2878.79 1388.53 2894.33 1404.3 2914.25 1404.3ZM2921.94 1385C2910.04 1385 2903.55 1374.41 2903.55 1359.15C2903.55 1344.01 2909.92 1333.59 2921.94 1333.59C2933.72 1333.59 2940.32 1343.56 2940.32 1359.15C2940.32 1374.75 2933.61 1385 2921.94 1385ZM3023.79 1404.58C3045.42 1404.58 3060 1394.05 3063.41 1377.83L3040.98 1376.35C3038.53 1383.01 3032.27 1386.48 3024.19 1386.48C3012.06 1386.48 3004.38 1378.45 3004.38 1365.42V1365.36H3063.92V1358.7C3063.92 1328.98 3045.94 1314.3 3022.82 1314.3C2997.09 1314.3 2980.41 1332.57 2980.41 1359.55C2980.41 1387.27 2996.86 1404.58 3023.79 1404.58ZM3004.38 1350.33C3004.89 1340.37 3012.46 1332.4 3023.22 1332.4C3033.75 1332.4 3041.04 1339.91 3041.1 1350.33H3004.38ZM3152.5 1340.37C3150.34 1324.26 3137.36 1314.3 3115.27 1314.3C3092.9 1314.3 3078.16 1324.66 3078.21 1341.51C3078.16 1354.6 3086.41 1363.08 3103.49 1366.5L3118.63 1369.51C3126.26 1371.05 3129.73 1373.84 3129.84 1378.22C3129.73 1383.4 3124.1 1387.1 3115.61 1387.1C3106.96 1387.1 3101.21 1383.4 3099.73 1376.29L3075.88 1377.54C3078.16 1394.28 3092.39 1404.58 3115.56 1404.58C3138.21 1404.58 3154.44 1393.02 3154.49 1375.78C3154.44 1363.14 3146.18 1355.57 3129.22 1352.09L3113.39 1348.91C3105.25 1347.14 3102.24 1344.35 3102.29 1340.14C3102.24 1334.9 3108.16 1331.49 3115.67 1331.49C3124.1 1331.49 3129.1 1336.1 3130.3 1341.73L3152.5 1340.37ZM3209.61 1404.58C3231.24 1404.58 3245.82 1394.05 3249.23 1377.83L3226.8 1376.35C3224.36 1383.01 3218.09 1386.48 3210.01 1386.48C3197.89 1386.48 3190.2 1378.45 3190.2 1365.42V1365.36H3249.75V1358.7C3249.75 1328.98 3231.76 1314.3 3208.65 1314.3C3182.91 1314.3 3166.23 1332.57 3166.23 1359.55C3166.23 1387.27 3182.69 1404.58 3209.61 1404.58ZM3190.2 1350.33C3190.71 1340.37 3198.28 1332.4 3209.04 1332.4C3219.57 1332.4 3226.86 1339.91 3226.92 1350.33H3190.2ZM3265.57 1402.87H3289.82V1353.4C3289.82 1342.64 3297.68 1335.24 3308.38 1335.24C3311.74 1335.24 3316.35 1335.81 3318.63 1336.55V1315.04C3316.46 1314.52 3313.45 1314.18 3311 1314.18C3301.21 1314.18 3293.18 1319.87 3289.99 1330.69H3289.08V1315.43H3265.57V1402.87ZM3415.34 1315.43H3389.67L3371.57 1378H3370.66L3352.5 1315.43H3326.88L3357.45 1402.87H3384.78L3415.34 1315.43ZM3464.63 1404.58C3486.26 1404.58 3500.83 1394.05 3504.25 1377.83L3481.82 1376.35C3479.37 1383.01 3473.11 1386.48 3465.03 1386.48C3452.9 1386.48 3445.22 1378.45 3445.22 1365.42V1365.36H3504.76V1358.7C3504.76 1328.98 3486.77 1314.3 3463.66 1314.3C3437.93 1314.3 3421.25 1332.57 3421.25 1359.55C3421.25 1387.27 3437.7 1404.58 3464.63 1404.58ZM3445.22 1350.33C3445.73 1340.37 3453.3 1332.4 3464.06 1332.4C3474.59 1332.4 3481.88 1339.91 3481.93 1350.33H3445.22ZM3534.76 1404.35C3542.05 1404.35 3548.37 1398.26 3548.42 1390.69C3548.37 1383.23 3542.05 1377.14 3534.76 1377.14C3527.25 1377.14 3521.04 1383.23 3521.1 1390.69C3521.04 1398.26 3527.25 1404.35 3534.76 1404.35Z" fill="#8080FF"/>
<path d="M1331.48 940.409C1420.28 940.409 1474.08 885.475 1474.08 794.393C1474.08 703.595 1420.28 648.946 1332.33 648.946H1228.16V940.409H1331.48ZM1289.78 887.61V701.745H1329.06C1383.71 701.745 1412.6 729.639 1412.6 794.393C1412.6 859.431 1383.71 887.61 1328.92 887.61H1289.78ZM1519.73 940.409H1716.69V889.602H1581.35V820.01H1706.02V769.203H1581.35V699.753H1716.12V648.946H1519.73V940.409ZM1817.77 648.946H1749.32L1849.94 940.409H1929.35L2029.82 648.946H1961.51L1890.92 870.39H1888.22L1817.77 648.946ZM2223.02 732.77H2282.08C2281.22 680.825 2238.53 644.961 2173.63 644.961C2109.73 644.961 2062.91 680.256 2063.2 733.197C2063.05 776.177 2093.37 800.797 2142.61 812.609L2174.35 820.579C2206.08 828.264 2223.73 837.372 2223.87 857.012C2223.73 878.359 2203.52 892.876 2172.21 892.876C2140.19 892.876 2117.13 878.075 2115.14 848.9H2055.51C2057.08 911.946 2102.19 944.536 2172.92 944.536C2244.08 944.536 2285.92 910.523 2286.06 857.154C2285.92 808.625 2249.35 782.865 2198.68 771.48L2172.5 765.218C2147.16 759.383 2125.96 749.99 2126.39 729.07C2126.39 710.284 2143.04 696.48 2173.21 696.48C2202.67 696.48 2220.74 709.857 2223.02 732.77ZM2571.3 648.946H2509.96V832.249H2507.4L2381.59 648.946H2327.51V940.409H2389.14V756.964H2391.27L2518.07 940.409H2571.3V648.946ZM2622.21 940.409H2819.18V889.602H2683.84V820.01H2808.51V769.203H2683.84V699.753H2818.61V648.946H2622.21V940.409ZM3025.71 732.77H3084.78C3083.92 680.825 3041.23 644.961 2976.33 644.961C2912.43 644.961 2865.61 680.256 2865.89 733.197C2865.75 776.177 2896.07 800.797 2945.31 812.609L2977.04 820.579C3008.78 828.264 3026.43 837.372 3026.57 857.012C3026.43 878.359 3006.22 892.876 2974.91 892.876C2942.89 892.876 2919.83 878.075 2917.84 848.9H2858.21C2859.77 911.946 2904.89 944.536 2975.62 944.536C3046.78 944.536 3088.62 910.523 3088.76 857.154C3088.62 808.625 3052.04 782.865 3001.38 771.48L2975.19 765.218C2949.86 759.383 2928.66 749.99 2929.08 729.07C2929.08 710.284 2945.73 696.48 2975.9 696.48C3005.36 696.48 3023.44 709.857 3025.71 732.77ZM3119.11 699.753H3208.34V940.409H3269.25V699.753H3358.48V648.946H3119.11V699.753Z" fill="#A3A3FF"/>
</svg>
